<svg width="1280" height="420" viewBox="0 0 1280 420" fill="none" xmlns="http://www.w3.org/2000/svg" role="img" aria-labelledby="title desc">
  <title id="title">utkuvibing profile banner</title>
  <desc id="desc">Dark premium banner with minimal typography and technical grid details.</desc>
  <defs>
    <linearGradient id="bg" x1="80" y1="48" x2="1216" y2="372" gradientUnits="userSpaceOnUse">
      <stop stop-color="#05070A"/>
      <stop offset="0.55" stop-color="#0A0F15"/>
      <stop offset="1" stop-color="#0F1620"/>
    </linearGradient>
    <linearGradient id="accent" x1="224" y1="86" x2="934" y2="290" gradientUnits="userSpaceOnUse">
      <stop stop-color="#CFE8E2"/>
      <stop offset="0.5" stop-color="#8BE9D1"/>
      <stop offset="1" stop-color="#5DAFC9"/>
    </linearGradient>
    <linearGradient id="line" x1="171" y1="56" x2="171" y2="364" gradientUnits="userSpaceOnUse">
      <stop stop-color="#8BE9D1" stop-opacity="0"/>
      <stop offset="0.5" stop-color="#8BE9D1" stop-opacity="0.65"/>
      <stop offset="1" stop-color="#8BE9D1" stop-opacity="0"/>
    </linearGradient>
  </defs>

  <rect x="12" y="12" width="1256" height="396" rx="28" fill="url(#bg)"/>
  <rect x="12.5" y="12.5" width="1255" height="395" rx="27.5" stroke="#27313C"/>
  <rect x="36" y="36" width="1208" height="348" rx="20" stroke="#1C2430"/>

  <path d="M88 92H1192" stroke="#151C24"/>
  <path d="M88 326H1192" stroke="#151C24"/>
  <path d="M171 56V364" stroke="url(#line)"/>

  <g opacity="0.58">
    <path d="M964 110H1178" stroke="#24303C"/>
    <path d="M964 144H1178" stroke="#24303C"/>
    <path d="M964 178H1178" stroke="#24303C"/>
    <path d="M964 212H1178" stroke="#24303C"/>
    <path d="M964 246H1178" stroke="#24303C"/>
    <path d="M964 280H1178" stroke="#24303C"/>
    <path d="M964 314H1178" stroke="#24303C"/>

    <path d="M964 110V314" stroke="#24303C"/>
    <path d="M999.667 110V314" stroke="#24303C"/>
    <path d="M1035.33 110V314" stroke="#24303C"/>
    <path d="M1071 110V314" stroke="#24303C"/>
    <path d="M1106.67 110V314" stroke="#24303C"/>
    <path d="M1142.33 110V314" stroke="#24303C"/>
    <path d="M1178 110V314" stroke="#24303C"/>
  </g>

  <rect x="928" y="86" width="274" height="252" rx="18" fill="#0C1219" stroke="#202A35"/>
  <rect x="952" y="116" width="226" height="46" rx="12" fill="#0A0F15" stroke="#25313E"/>
  <rect x="952" y="188" width="226" height="46" rx="12" fill="#0A0F15" stroke="#25313E"/>
  <rect x="952" y="260" width="226" height="46" rx="12" fill="#0A0F15" stroke="#25313E"/>

  <circle cx="982" cy="139" r="6" fill="#8BE9D1"/>
  <circle cx="982" cy="211" r="6" fill="#8BE9D1"/>
  <circle cx="982" cy="283" r="6" fill="#8BE9D1"/>

  <text x="88" y="74" fill="#7E8A97" font-family="'IBM Plex Mono', 'Consolas', monospace" font-size="14" letter-spacing="2.8">UTKU SAHIN / PROFILE README</text>
  <text x="88" y="168" fill="url(#accent)" font-family="'Segoe UI', 'Arial', sans-serif" font-size="78" font-weight="700" letter-spacing="-2">utku</text>
  <text x="88" y="246" fill="#F5F7FA" font-family="'Segoe UI', 'Arial', sans-serif" font-size="78" font-weight="700" letter-spacing="-2">vibing</text>
  <text x="88" y="290" fill="#AAB7C4" font-family="'IBM Plex Mono', 'Consolas', monospace" font-size="20">materials science • AI tools • automation</text>
  <text x="88" y="334" fill="#DCE6ED" font-family="'Georgia', serif" font-size="26" font-style="italic">clean systems, useful tools, mildly unreasonable ideas.</text>

  <text x="1004" y="131" fill="#7E8A97" font-family="'IBM Plex Mono', 'Consolas', monospace" font-size="11" letter-spacing="2">CURRENT FOCUS</text>
  <text x="1004" y="147" fill="#F5F7FA" font-family="'Segoe UI', 'Arial', sans-serif" font-size="18" font-weight="600">MaterialScope</text>

  <text x="1004" y="203" fill="#7E8A97" font-family="'IBM Plex Mono', 'Consolas', monospace" font-size="11" letter-spacing="2">BUILD MODE</text>
  <text x="1004" y="219" fill="#F5F7FA" font-family="'Segoe UI', 'Arial', sans-serif" font-size="18" font-weight="600">scientific software</text>

  <text x="1004" y="275" fill="#7E8A97" font-family="'IBM Plex Mono', 'Consolas', monospace" font-size="11" letter-spacing="2">SIGNAL</text>
  <text x="1004" y="291" fill="#F5F7FA" font-family="'Segoe UI', 'Arial', sans-serif" font-size="18" font-weight="600">vibecoder, but measured</text>
</svg>
